<svg width="63" height="80" viewBox="0 0 63 80" fill="none" xmlns="http://www.w3.org/2000/svg">
<path d="M25.6215 2C30.088 3.69205 33.0521 9.44053 35.7805 13.3324C36.5143 14.3679 37.2725 15.3811 38.0412 16.3874C38.3092 16.0391 38.5772 15.6907 38.8534 15.3317C39.2185 14.8762 39.584 14.4211 39.9499 13.9663C40.3042 13.5169 40.6585 13.0675 41.0235 12.6045C42.4584 11.2726 43.2633 11.0351 45.1531 11.0443C51.0504 14.0437 56.276 25.354 58.4013 31.7524C58.6158 32.4367 58.8277 33.122 59.037 33.8082C59.1457 34.152 59.2543 34.4958 59.3663 34.8501C61.7526 42.5548 61.5643 51.6814 58.5402 59.1324C58.3795 59.5491 58.2188 59.9658 58.0532 60.3951C56.8243 63.287 55.0589 65.6615 53.1017 68.0376C52.8693 68.3222 52.6368 68.6069 52.3974 68.9002C47.6337 74.3472 40.4549 77.5697 33.5456 77.9759C25.4183 78.2648 17.973 75.9777 11.8945 70.0691C8.46007 66.5735 6.02122 62.9012 4.15505 58.2418C3.98086 57.8114 3.80667 57.3809 3.62721 56.9374C0.147034 46.514 2.72559 35.0121 6.88084 25.3309C10.0163 18.3281 14.4697 12.2561 19.3463 6.53608C19.5468 6.29893 19.7474 6.06177 19.954 5.81743C21.5876 3.94541 23.1652 2.24663 25.6215 2ZM24.6541 10.1538C23.8576 11.0246 23.1156 11.8991 22.3793 12.8254C22.1564 13.1053 21.9335 13.3852 21.7039 13.6736C16.4951 20.3274 11.6802 27.9668 9.59356 36.4241C9.46953 36.912 9.34549 37.3999 9.2177 37.9025C7.39609 45.8534 8.19231 52.9741 12.1036 60.0229C12.9985 61.4483 13.9563 62.7549 15.0321 64.0302C15.2305 64.2661 15.429 64.502 15.6334 64.7451C17.277 66.4442 19.2575 67.4971 21.2811 68.5941C21.7005 68.8223 21.7005 68.8223 22.1284 69.0552C27.5801 71.8959 33.4654 71.9141 39.1916 69.9334C45.8658 67.1842 50.2516 62.5379 53.2847 55.6816C56.0588 48.51 54.5273 39.3731 51.8466 32.4168C49.8134 27.7501 47.6071 23.31 44.3164 19.5043C42.658 21.1136 41.5176 22.8105 40.3535 24.8526C39.6272 25.859 39.177 26.2491 38.0412 26.6284C36.8284 26.5523 36.1959 26.4554 35.3432 25.5135C35.1722 25.2111 35.0013 24.9086 34.8251 24.5969C34.6148 24.237 34.4045 23.8772 34.1878 23.5064C33.9408 23.0673 33.6938 22.6282 33.4394 22.1758C29.8977 15.8282 29.8977 15.8282 25.4908 10.1538C25.2147 10.1538 24.9385 10.1538 24.6541 10.1538Z" fill="#A66EFF" stroke="#A66EFF" stroke-width="3"/>
</svg>
