<svg width="79" height="99" viewBox="0 0 79 99" fill="none" xmlns="http://www.w3.org/2000/svg">
<path d="M32.0273 2C37.7051 4.11506 41.473 11.3007 44.9413 16.1655C45.8741 17.4599 46.8379 18.7263 47.8151 19.9843C48.1558 19.5488 48.4965 19.1133 48.8475 18.6646C49.3116 18.0953 49.7763 17.5264 50.2414 16.9579C50.6918 16.3962 51.1422 15.8344 51.6062 15.2556C53.4302 13.5908 54.4534 13.2939 56.8556 13.3054C64.3522 17.0546 70.9949 31.1925 73.6966 39.1905C73.9693 40.0459 74.2386 40.9025 74.5046 41.7603C74.6428 42.19 74.7809 42.6198 74.9232 43.0626C77.9567 52.6935 77.7174 64.1018 73.8731 73.4155C73.6689 73.9363 73.4646 74.4572 73.2541 74.9939C71.6918 78.6087 69.4477 81.5769 66.9598 84.5469C66.6643 84.9028 66.3689 85.2587 66.0644 85.6253C60.009 92.4341 50.8834 96.4621 42.1003 96.9699C31.769 97.331 22.3047 94.4722 14.5777 87.0863C10.212 82.7168 7.11172 78.1265 4.73946 72.3023C4.51804 71.7642 4.29662 71.2261 4.06849 70.6717C-0.355465 57.6425 2.92236 43.2651 8.20446 31.1636C12.1902 22.4101 17.8513 14.8201 24.0504 7.6701C24.3053 7.37366 24.5602 7.07721 24.8229 6.77178C26.8995 4.43176 28.9049 2.30829 32.0273 2ZM30.7975 12.1923C29.7851 13.2808 28.8418 14.3739 27.9059 15.5317C27.6226 15.8816 27.3392 16.2315 27.0473 16.592C20.426 24.9092 14.3053 34.4586 11.6528 45.0302C11.4952 45.64 11.3375 46.2498 11.175 46.8782C8.85943 56.8167 9.87159 65.7177 14.8436 74.5286C15.9812 76.3103 17.1987 77.9437 18.5662 79.5378C18.8185 79.8326 19.0707 80.1275 19.3307 80.4313C21.4199 82.5552 23.9375 83.8713 26.5099 85.2427C27.043 85.5279 27.043 85.5279 27.5869 85.8189C34.5171 89.3699 41.9983 89.3927 49.2775 86.9167C57.7616 83.4803 63.3367 77.6724 67.1924 69.102C70.7188 60.1374 68.772 48.7164 65.3644 40.021C62.7797 34.1877 59.9751 28.6375 55.792 23.8803C53.6839 25.892 52.2343 28.0131 50.7545 30.5657C49.8312 31.8237 49.2589 32.3114 47.8151 32.7855C46.2733 32.6903 45.4694 32.5693 44.3854 31.3919C44.1681 31.0138 43.9508 30.6357 43.7269 30.2462C43.4595 29.7963 43.1922 29.3465 42.9167 28.883C42.6027 28.3341 42.2888 27.7853 41.9653 27.2198C37.4632 19.2852 37.4632 19.2852 31.8611 12.1923C31.5101 12.1923 31.1592 12.1923 30.7975 12.1923Z" fill="#A66EFF" stroke="#A66EFF" stroke-width="3"/>
<path d="M33.0447 14.5386C37.5112 16.2306 40.4753 21.9791 43.2037 25.871C43.9375 26.9065 44.6957 27.9196 45.4644 28.926C45.7324 28.5776 46.0004 28.2292 46.2766 27.8703C46.6417 27.4148 47.0072 26.9597 47.3731 26.5049C47.7274 26.0555 48.0817 25.6061 48.4468 25.1431C49.8816 23.8112 50.6865 23.5737 52.5763 23.5829C58.4736 26.5823 63.6992 37.8926 65.8245 44.291C66.039 44.9753 66.2509 45.6606 66.4602 46.3468C66.5689 46.6906 66.6775 47.0344 66.7895 47.3886C69.1758 55.0934 68.9875 64.22 65.9634 71.6709C65.8027 72.0876 65.642 72.5043 65.4764 72.9337C64.2475 75.8256 62.4821 78.2001 60.5249 80.5761C60.2925 80.8608 60.06 81.1455 59.8206 81.4388C55.0569 86.8858 47.8782 90.1083 40.9688 90.5145C32.8415 90.8034 25.3963 88.5163 19.3177 82.6076C15.8833 79.1121 13.4444 75.4397 11.5783 70.7804C11.4041 70.3499 11.2299 69.9195 11.0504 69.4759C7.57025 59.0526 10.1488 47.5507 14.3041 37.8695C17.4395 30.8666 21.8929 24.7947 26.7695 19.0747C26.97 18.8375 27.1706 18.6003 27.3772 18.356C29.0108 16.484 30.5884 14.7852 33.0447 14.5386ZM32.0773 22.6924C31.2808 23.5632 30.5388 24.4377 29.8025 25.3639C29.5796 25.6439 29.3567 25.9238 29.1271 26.2122C23.9183 32.866 19.1034 40.5054 17.0168 48.9627C16.8927 49.4506 16.7687 49.9384 16.6409 50.4411C14.8193 58.392 15.6155 65.5127 19.5269 72.5615C20.4217 73.9868 21.3795 75.2935 22.4553 76.5688C22.6537 76.8047 22.8522 77.0406 23.0567 77.2836C24.7002 78.9828 26.6807 80.0357 28.7044 81.1327C29.1237 81.3609 29.1237 81.3609 29.5516 81.5937C35.0033 84.4345 40.8886 84.4527 46.6149 82.472C53.289 79.7228 57.6748 75.0765 60.7079 68.2202C63.482 61.0485 61.9505 51.9117 59.2699 44.9554C57.2366 40.2887 55.0303 35.8485 51.7396 32.0428C50.0812 33.6522 48.9408 35.3491 47.7767 37.3912C47.0504 38.3975 46.6002 38.7877 45.4644 39.167C44.2516 39.0908 43.6192 38.994 42.7664 38.0521C42.5954 37.7496 42.4245 37.4471 42.2484 37.1355C42.038 36.7756 41.8277 36.4157 41.611 36.045C41.364 35.6059 41.1171 35.1668 40.8626 34.7144C37.3209 28.3667 37.3209 28.3667 32.914 22.6924C32.6379 22.6924 32.3618 22.6924 32.0773 22.6924Z" fill="#A66EFF" stroke="#A66EFF" stroke-width="3"/>
</svg>
