<svg width="539" height="71" viewBox="0 0 539 71" fill="none" xmlns="http://www.w3.org/2000/svg">
<path d="M16.216 45V31.176H28.6C30.072 31.176 31.416 30.888 32.632 30.312C33.912 29.672 34.936 28.744 35.704 27.528C36.472 26.248 36.856 24.68 36.856 22.824C36.856 20.968 36.472 19.432 35.704 18.216C34.936 16.936 33.912 16.008 32.632 15.432C31.416 14.792 30.072 14.472 28.6 14.472H16.216V0.647999H32.344C36.76 0.647999 40.728 1.544 44.248 3.336C47.832 5.064 50.648 7.592 52.696 10.92C54.808 14.184 55.864 18.152 55.864 22.824C55.864 27.432 54.808 31.4 52.696 34.728C50.648 38.056 47.832 40.616 44.248 42.408C40.728 44.136 36.76 45 32.344 45H16.216ZM0.664 69V0.647999H19.864V69H0.664ZM83.3913 70.152C78.2073 70.152 73.5673 69.096 69.4713 66.984C65.4393 64.808 62.2393 61.832 59.8713 58.056C57.5673 54.28 56.4153 50.024 56.4153 45.288C56.4153 40.552 57.5673 36.328 59.8713 32.616C62.1753 28.904 65.3433 25.992 69.3753 23.88C73.4713 21.704 78.1113 20.616 83.2953 20.616C88.4793 20.616 93.0873 21.704 97.1193 23.88C101.151 25.992 104.319 28.904 106.623 32.616C108.991 36.328 110.175 40.552 110.175 45.288C110.175 50.024 109.023 54.28 106.719 58.056C104.415 61.832 101.247 64.808 97.2153 66.984C93.1833 69.096 88.5753 70.152 83.3913 70.152ZM83.2953 53.64C84.8953 53.64 86.2713 53.32 87.4233 52.68C88.6393 51.976 89.5673 51.016 90.2073 49.8C90.8473 48.52 91.1673 47.048 91.1673 45.384C91.1673 43.72 90.8153 42.28 90.1113 41.064C89.4713 39.784 88.5753 38.824 87.4233 38.184C86.2713 37.48 84.8953 37.128 83.2953 37.128C81.7593 37.128 80.3833 37.48 79.1673 38.184C78.0153 38.888 77.0873 39.88 76.3833 41.16C75.7433 42.376 75.4233 43.816 75.4233 45.48C75.4233 47.08 75.7433 48.52 76.3833 49.8C77.0873 51.016 78.0153 51.976 79.1673 52.68C80.3833 53.32 81.7593 53.64 83.2953 53.64ZM123.623 69L109.895 21.768H127.751L135.335 56.136L130.055 56.232L139.943 21.768H157.703L167.687 56.232L162.311 56.136L170.087 21.768H187.943L174.215 69H156.263L147.047 36.36H150.887L141.383 69H123.623ZM215.458 70.152C209.954 70.152 205.122 69.128 200.962 67.08C196.802 64.968 193.538 62.056 191.17 58.344C188.866 54.568 187.714 50.248 187.714 45.384C187.714 40.584 188.834 36.328 191.074 32.616C193.378 28.904 196.514 25.992 200.482 23.88C204.45 21.704 208.93 20.616 213.922 20.616C218.85 20.616 223.202 21.64 226.978 23.688C230.754 25.672 233.698 28.456 235.81 32.04C237.986 35.624 239.074 39.72 239.074 44.328C239.074 45.288 239.01 46.312 238.882 47.4C238.818 48.424 238.626 49.64 238.306 51.048L195.682 51.336V39.816L231.298 39.528L222.562 44.616C222.562 42.056 222.242 39.976 221.602 38.376C221.026 36.712 220.13 35.464 218.914 34.632C217.698 33.8 216.162 33.384 214.306 33.384C212.386 33.384 210.722 33.864 209.314 34.824C207.906 35.784 206.818 37.16 206.05 38.952C205.346 40.744 204.994 42.92 204.994 45.48C204.994 48.104 205.378 50.312 206.146 52.104C206.978 53.832 208.162 55.144 209.698 56.04C211.234 56.936 213.154 57.384 215.458 57.384C217.698 57.384 219.65 57.032 221.314 56.328C223.042 55.56 224.61 54.376 226.018 52.776L235.426 62.088C233.058 64.776 230.21 66.792 226.882 68.136C223.554 69.48 219.746 70.152 215.458 70.152ZM243.735 69V21.768H262.551V69H243.735ZM262.551 43.464L253.815 35.688C256.247 30.568 259.063 26.824 262.263 24.456C265.527 22.024 269.591 20.808 274.455 20.808C276.631 20.808 278.487 21.064 280.023 21.576C281.623 22.088 282.903 22.824 283.863 23.784L273.303 38.76C272.855 38.248 272.183 37.832 271.287 37.512C270.455 37.128 269.463 36.936 268.311 36.936C266.391 36.936 264.951 37.512 263.991 38.664C263.031 39.752 262.551 41.352 262.551 43.464ZM291.054 69V2.952H298.062V69H291.054ZM334.35 69V2.952H341.358V69H334.35ZM295.662 38.088V31.656H336.27V38.088H295.662ZM376.129 69.96C371.777 69.96 367.809 68.904 364.225 66.792C360.705 64.68 357.889 61.832 355.777 58.248C353.729 54.664 352.705 50.664 352.705 46.248C352.705 41.896 353.729 37.96 355.777 34.44C357.889 30.92 360.705 28.136 364.225 26.088C367.809 23.976 371.777 22.92 376.129 22.92C380.545 22.92 384.513 23.944 388.033 25.992C391.553 28.04 394.337 30.856 396.385 34.44C398.497 37.96 399.553 41.896 399.553 46.248C399.553 50.728 398.497 54.76 396.385 58.344C394.337 61.864 391.553 64.68 388.033 66.792C384.513 68.904 380.545 69.96 376.129 69.96ZM376.129 63.432C379.329 63.432 382.145 62.696 384.577 61.224C387.073 59.752 389.025 57.704 390.433 55.08C391.905 52.456 392.641 49.512 392.641 46.248C392.641 42.984 391.905 40.104 390.433 37.608C389.025 35.048 387.073 33.032 384.577 31.56C382.145 30.088 379.329 29.352 376.129 29.352C372.993 29.352 370.177 30.088 367.681 31.56C365.185 33.032 363.233 35.048 361.825 37.608C360.417 40.104 359.713 42.984 359.713 46.248C359.713 49.576 360.417 52.552 361.825 55.176C363.233 57.736 365.185 59.752 367.681 61.224C370.177 62.696 372.993 63.432 376.129 63.432ZM427.139 69.96C423.491 69.96 420.227 69.128 417.347 67.464C414.467 65.736 412.195 63.4 410.531 60.456C408.931 57.512 408.131 54.056 408.131 50.088V23.88H414.947V49.8C414.947 52.552 415.427 54.952 416.387 57C417.411 59.048 418.852 60.648 420.707 61.8C422.563 62.952 424.707 63.528 427.139 63.528C430.915 63.528 433.892 62.28 436.068 59.784C438.308 57.288 439.428 53.96 439.428 49.8V23.88H446.148V50.088C446.148 53.992 445.347 57.448 443.747 60.456C442.148 63.464 439.908 65.8 437.028 67.464C434.148 69.128 430.852 69.96 427.139 69.96ZM471.554 69.96C469.122 69.96 466.786 69.64 464.546 69C462.306 68.296 460.258 67.336 458.402 66.12C456.61 64.904 455.042 63.464 453.698 61.8L458.018 57.384C459.81 59.56 461.826 61.192 464.066 62.28C466.37 63.304 468.93 63.816 471.746 63.816C474.754 63.816 477.09 63.24 478.754 62.088C480.482 60.936 481.346 59.336 481.346 57.288C481.346 55.368 480.738 53.864 479.522 52.776C478.306 51.688 476.738 50.824 474.818 50.184C472.962 49.544 470.978 48.936 468.866 48.36C466.754 47.72 464.738 46.952 462.818 46.056C460.898 45.096 459.33 43.784 458.114 42.12C456.962 40.456 456.386 38.28 456.386 35.592C456.386 33.032 456.994 30.824 458.21 28.968C459.49 27.048 461.282 25.576 463.586 24.552C465.954 23.464 468.738 22.92 471.938 22.92C475.33 22.92 478.402 23.528 481.154 24.744C483.906 25.96 486.114 27.752 487.778 30.12L483.458 34.44C482.114 32.712 480.418 31.4 478.37 30.504C476.386 29.544 474.146 29.064 471.65 29.064C468.77 29.064 466.562 29.64 465.026 30.792C463.554 31.88 462.818 33.32 462.818 35.112C462.818 36.84 463.426 38.216 464.642 39.24C465.858 40.2 467.394 41 469.25 41.64C471.17 42.216 473.186 42.824 475.298 43.464C477.41 44.04 479.426 44.84 481.346 45.864C483.266 46.824 484.802 48.168 485.954 49.896C487.17 51.56 487.778 53.832 487.778 56.712C487.778 60.744 486.306 63.976 483.362 66.408C480.482 68.776 476.546 69.96 471.554 69.96ZM518.289 69.96C513.745 69.96 509.681 68.936 506.097 66.888C502.513 64.84 499.665 62.024 497.553 58.44C495.505 54.856 494.481 50.824 494.481 46.344C494.481 41.928 495.505 37.96 497.553 34.44C499.601 30.856 502.385 28.04 505.905 25.992C509.425 23.944 513.361 22.92 517.713 22.92C521.809 22.92 525.425 23.848 528.561 25.704C531.761 27.56 534.257 30.152 536.049 33.48C537.905 36.744 538.833 40.52 538.833 44.808C538.833 45.32 538.801 45.928 538.737 46.632C538.673 47.272 538.545 48.04 538.353 48.936H499.281V43.176H534.705L532.305 45.288C532.369 41.96 531.793 39.112 530.577 36.744C529.425 34.312 527.729 32.456 525.489 31.176C523.313 29.832 520.657 29.16 517.521 29.16C514.257 29.16 511.409 29.864 508.977 31.272C506.545 32.68 504.625 34.664 503.217 37.224C501.873 39.72 501.201 42.696 501.201 46.152C501.201 49.608 501.905 52.648 503.313 55.272C504.785 57.896 506.801 59.944 509.361 61.416C511.985 62.888 514.993 63.624 518.385 63.624C521.137 63.624 523.665 63.144 525.969 62.184C528.273 61.16 530.225 59.656 531.825 57.672L536.145 62.088C534.033 64.584 531.409 66.536 528.273 67.944C525.201 69.288 521.873 69.96 518.289 69.96Z" fill="white"/>
</svg>
